# xmcd CD database file
# Generated: Thu Jun 6 23:58:15 2002 by KSCD
# 
# Track frame offsets:
#       150
#       13512
#       26882
#       45915
#       71242
#       90882
#       105742
#       145365
#       160130
#       188892
#       209617
#
# Disc length: 3496 seconds
#
# Revision: 1
# Processed by: cddbd v1.4PL0 Copyright (c) Steve Scherf et al.
# Submitted via: Kscd 1.3.3
#
DISCID=930da60b
DTITLE=Steve Winwood - The Best of Steve Winwood
DYEAR=1900
DGENRE=
TTITLE0=Gimme Some Lovin'
TTITLE1=I'm a Man
TTITLE2=Paper Sun
TTITLE3=Dear Mr. Fantasy
TTITLE4=Pearly Queen
TTITLE5=Forty Thousand Headmen
TTITLE6=Had to Cry Today
TTITLE7=Can't Find My Way Home
TTITLE8=John Barleycorn
TTITLE9=Empty Pages
TTITLE10=Low Spark of High-Heeled Boys
EXTD=
EXTT0=
EXTT1=
EXTT2=
EXTT3=
EXTT4=
EXTT5=
EXTT6=
EXTT7=
EXTT8=
EXTT9=
EXTT10=
PLAYORDER=
